# xmcd CD database file
#
# Track frame offsets:
#	150
#	23334
#	47799
#	57398
#	77836
#	100205
#	118258
#	134159
#	150474
#	176677
#	195170
#	214671
#	229331
#	248638
#	260554
#
# Disc length: 3761 seconds
#
# Revision: 0
# Processed by: cddbd v1.5.2PL0 Copyright (c) Steve Scherf et al.
# Submitted via: CDex 1.93
#
DISCID=cc0eaf0f
DTITLE=Bandari - SILENCE - Music, Harmony, Inspiration Disc 2
DYEAR=2010
DGENRE=New Age
TTITLE0=Who Wants To Live Forever
TTITLE1=The Winds Of Change
TTITLE2=Moon River
TTITLE3=Endless Horizont
TTITLE4=I Believe I Can Fly
TTITLE5=Moments Of Love
TTITLE6=Silver Valley
TTITLE7=Jupiter
TTITLE8=Hiroshima
TTITLE9=Bright Eyes
TTITLE10=Windmills
TTITLE11=Mystica
TTITLE12=Springtime
TTITLE13=Beyond The Memory Of Man
TTITLE14=Hymn
EXTD=YEAR: 2010
EXTT0=
EXTT1=
EXTT2=
EXTT3=
EXTT4=
EXTT5=
EXTT6=
EXTT7=
EXTT8=
EXTT9=
EXTT10=
EXTT11=
EXTT12=
EXTT13=
EXTT14=
PLAYORDER=
